# AST/ASF file generated using VICON BodyLanguage
# -----------------------------------------------
:version 1.10
:name VICON
:units
  mass 1.0
  length 0.45
  angle deg
:documentation
   .ast/.asf automatically generated from VICON data using
   VICON BodyBuilder and BodyLanguage model FoxedUp or BRILLIANT.MOD
:root
   order TX TY TZ RX RY RZ
   axis XYZ
   position 0 0 0  
   orientation 0 0 0 
:bonedata
  begin
     id 1 
     name lhipjoint
     direction 0.70531 -0.63749 0.310071 
     length 2.59589 
     axis 0 0 0  XYZ
  end
  begin
     id 2 
     name lfemur
     direction 0.34202 -0.939693 0  
     length 6.19797  
     axis 0 0 20  XYZ
    dof rx ry rz
    limits (-160.0 20.0)
           (-70.0 70.0)
           (-60.0 70.0)
  end
  begin
     id 3 
     name ltibia
     direction 0.34202 -0.939693 0   
     length 7.80054   
     axis 0 0 20   XYZ
    dof rx
    limits (-10.0 170.0)
  end
  begin
     id 4 
     name lfoot
     direction 0.0828572 -0.227648 0.970212   
     length 1.88124   
     axis -90 7.62852e-016 20   XYZ
    dof rx rz
    limits (-45.0 90.0)
           (-70.0 20.0)
  end
  begin
     id 5 
     name ltoes
     direction 1.53544e-011 -4.219e-011 1   
     length 0.948015   
     axis -90 7.62852e-016 20   XYZ
    dof rx
    limits (-90.0 20.0)
  end
  begin
     id 6 
     name rhipjoint
     direction -0.730062 -0.614543 0.29891   
     length 2.69282  
     axis 0 0 0  XYZ 
  end
  begin
     id 7 
     name rfemur
     direction -0.34202 -0.939693 0   
     length 5.86298   
     axis 0 0 -20   XYZ
    dof rx ry rz
    limits (-160.0 20.0)
           (-70.0 70.0)
           (-70.0 60.0)
  end
  begin
     id 8 
     name rtibia
     direction -0.34202 -0.939693 0   
     length 7.72374   
     axis 0 0 -20   XYZ
    dof rx
    limits (-10.0 170.0)
 end
 begin
     id 9 
     name rfoot
     direction -0.0967421 -0.265797 0.959163   
     length 2.02368  
     axis -90 -7.62852e-016 -20   XYZ
    dof rx rz
    limits (-45.0 90.0)
           (-20.0 70.0)
  end
  begin
     id 10 
     name rtoes
     direction -1.53524e-011 -4.21768e-011 1   
     length 1.01373   
     axis -90 -7.62852e-016 -20   XYZ
    dof rx
    limits (-90.0 20.0)
  end
  begin
     id 11 
     name lowerback
     direction 0.00561702 0.992801 -0.119643   
     length 2.02816   
     axis 0 0 0   XYZ
    dof rx ry rz
    limits (-20.0 45.0)
           (-30.0 30.0)
           (-30.0 30.0)
  end
  begin
     id 12 
     name upperback
     direction 0.00155544 0.995735 -0.0922509   
     length 2.02265   
     axis 0 0 0   XYZ
    dof rx ry rz
    limits (-20.0 45.0)
           (-30.0 30.0)
           (-30.0 30.0)
  end
  begin
     id 13 
     name thorax
     direction -0.000937535 0.999317 -0.0369292   
     length 2.04823   
     axis 0 0 0   XYZ
    dof rx ry rz
    limits (-20.0 45.0)
           (-30.0 30.0)
           (-30.0 30.0)
  end
  begin
     id 14 
     name lowerneck
     direction -0.0813151 0.981659 0.172436   
     length 1.8875   
     axis 0 0 0   XYZ
    dof rx ry rz
    limits (-20.0 45.0)
           (-30.0 30.0)
           (-30.0 30.0)
  end
  begin
     id 15 
     name upperneck
     direction 0.119359 0.955672 -0.269157   
     length 1.92801   
     axis 0 0 0   XYZ
    dof rx ry rz
    limits (-20.0 45.0)
           (-30.0 30.0)
           (-30.0 30.0)
  end
  begin
     id 16
     name head
     direction 0.0421007 0.992672 -0.113268  
     length 1.95809  
     axis 0 0 0   XYZ
    dof rx ry rz
    limits (-20.0 45.0)
           (-30.0 30.0)
           (-30.0 30.0)
  end
  begin
     id 17 
     name lclavicle
     direction 0.944093 0.32865 -0.0260136  
     length 3.84992  
     axis 0 0 0   XYZ
    dof ry rz
    limits (-20.0 10.0)
           (0.0 20.0)
  end
  begin
     id 18 
     name lhumerus
     direction 1 -4.48979e-011 -1.27712e-029   
     length 5.53593   
     axis 180 -30 -90   XYZ
    dof rx ry rz
    limits (-60.0 90.0)
           (-90.0 90.0)
           (-90.0 90.0)
  end
  begin
     id 19
     name lradius
     direction 1 -4.48966e-011 1.00051e-028   
     length 3.13345   
     axis 180 -30 -90   XYZ
    dof rx
    limits (-10.0 170.0)
  end
  begin
     id 20
     name lwrist
     direction 1 -4.4896e-011 2.56952e-028   
     length 1.56673   
     axis -5.12785e-016 90 90   XYZ
    dof ry
    limits (-180.0 0.0)
 end
  begin
     id 21 
     name lhand
     direction 1 -4.48934e-011 5.13905e-028   
     length 0.713374   
     axis -3.27915e-016 90 90   XYZ
    dof rx rz
    limits (-90.0 90.0)
           (-45.0 45.0)
  end
  begin
     id 22 
     name lfingers
     direction 1 -4.48973e-011 1.02781e-027   
     length 0.575141   
     axis -6.5583e-016 90 90   XYZ
    dof rx
    limits (0.0 90.0)
  end
  begin
     id 23
     name lthumb
     direction 0.707107 -6.34883e-011 0.707107   
     length 0.82579   
     axis -90 45 2.85299e-015   XYZ
    dof rx rz
    limits (-45.0 45.0)
           (-45.0 45.0)
  end
  begin
     id 24 
     name rclavicle
     direction -0.936895 0.34884 0.0232243   
     length 3.53304  
     axis 0 0 0   XYZ 
    dof ry rz
    limits (-10.0 20.0)
           (-20.0 0.0)
  end
  begin
     id 25 
     name rhumerus
     direction -1 -4.48965e-011 1.05514e-027  
     length 5.4685   
     axis 180 30 90   XYZ
    dof rx ry rz
    limits (-90.0 60.0)
           (-90.0 90.0)
           (-90.0 90.0)
  end
  begin
     id 26 
     name rradius
     direction -1 -4.48964e-011 -1.1079e-027   
     length 3.22411   
     axis 180 30 90   XYZ
    dof rx
    limits (-10.0 170.0)
  end
  begin
     id 27 
     name rwrist
     direction -1 -4.48973e-011 2.56952e-028   
     length 1.61206   
     axis -5.12785e-016 -90 -90   XYZ
    dof ry
    limits (-180.0 0.0)
  end
  begin
     id 28
     name rhand
     direction -1 -4.48957e-011 5.13905e-028   
     length 0.74528   
     axis -3.27915e-016 -90 -90   XYZ
    dof rx rz
    limits (-90.0 90.0)
           (-45.0 45.0)
  end
  begin
     id 29
     name rfingers
     direction -1 -4.4901e-011 1.02781e-027   
     length 0.600864   
     axis -6.5583e-016 -90 -90   XYZ
    dof rx
    limits (0.0 90.0)
  end
  begin
     id 30
     name rthumb
     direction -0.707107 -6.34972e-011 0.707107   
     length 0.862724   
     axis -90 -45 -2.85299e-015   XYZ
    dof rx rz
    limits (-45.0 45.0)
           (-45.0 45.0)
  end
:hierarchy
  begin
    root lhipjoint rhipjoint lowerback
    lhipjoint lfemur
    lfemur ltibia
    ltibia lfoot
    lfoot ltoes
    rhipjoint rfemur
    rfemur rtibia
    rtibia rfoot
    rfoot rtoes
    lowerback upperback
    upperback thorax
    thorax lowerneck lclavicle rclavicle
    lowerneck upperneck
    upperneck head
    lclavicle lhumerus
    lhumerus lradius
    lradius lwrist
    lwrist lhand lthumb
    lhand lfingers
    rclavicle rhumerus
    rhumerus rradius
    rradius rwrist
    rwrist rhand rthumb
    rhand rfingers
  end

#!OML:ASF G:\Work\Work\Patient Classification 1\Liu\Session 1\Liu.ASF
:FULLY-SPECIFIED
:DEGREES
33
root 9.23407 15.7857 -42.4156 7.81106 0.390359 -1.28628
lowerback 1.05058 -0.0683989 4.87361
upperback 2.32094 -0.0951302 -0.102997
thorax 1.79189 0.0383429 -2.8384
lowerneck -21.7184 -9.52785 -17.0739
upperneck 19.9491 -9.90712 9.20718
head 11.436 -4.74186 4.48239
rclavicle -1.01877e-015 1.19271e-014
rhumerus -38.1888 25.3706 -94.4886
rradius 42.5265
rwrist -12.4632
rhand -14.2544 13.8732
rfingers 7.12502
rthumb 11.8838 -15.7696
lclavicle -1.01877e-015 1.19271e-014
lhumerus -31.8897 -2.12551 84.8436
lradius 27.8118
lwrist -1.9112
lhand -13.8092 32.5615
lfingers 7.12502
lthumb 12.3131 62.1789
rfemur 0.538677 2.54053 29.229
rtibia 15.2978
rfoot -24.408 -6.21321
rtoes -10.9777
lfemur -46.5174 9.46143 -22.91
ltibia 53.128
lfoot -18.0333 0.680653
ltoes -10.5889
34
root 9.23502 15.8042 -42.3515 8.875 -0.624023 -1.70518
lowerback 0.569169 0.351203 5.10866
upperback 1.66317 0.452172 0.0429312
thorax 1.43196 0.292844 -2.81617
lowerneck -20.6287 -9.26219 -17.1219
upperneck 19.7825 -9.68136 9.09015
head 11.136 -4.68627 4.51203
rclavicle -6.78353e-015 1.37161e-014
rhumerus -38.6039 25.3504 -94.2901
rradius 43.3835
rwrist -13.8462
rhand -15.8669 18.8736
rfingers 7.12502
rthumb 10.3285 -10.8528
lclavicle -6.78353e-015 1.37161e-014
lhumerus -32.7277 -1.80769 84.8911
lradius 27.9199
lwrist -2.36861
lhand -13.3867 32.9348
lfingers 7.12502
lthumb 12.7205 62.5273
rfemur -0.0420261 2.4342 29.2651
rtibia 14.5873
rfoot -23.7748 -4.91697
rtoes -11.1013
lfemur -47.9815 10.1728 -22.9416
ltibia 51.7507
lfoot -17.9831 1.02491
ltoes -9.48529
35
root 9.23534 15.7822 -42.2623 8.29111 0.642492 -1.65718
lowerback 1.11532 0.0210066 5.25591
upperback 2.01733 0.0341596 0.0976968
thorax 1.45475 0.0931261 -2.84553
lowerneck -21.479 -9.29647 -16.7951
upperneck 20.0622 -9.63156 8.84976
head 11.3568 -4.64708 4.36302
rclavicle 1.31695e-015 -8.44835e-015
rhumerus -38.2286 25.7 -94.1959
rradius 42.8156
rwrist -12.3441
rhand -18.4549 20.5546
rfingers 7.12502
rthumb 7.83134 -9.28037
lclavicle 1.31695e-015 -8.44835e-015
lhumerus -32.4253 -1.82011 84.9571
lradius 27.6714
lwrist -2.26867
lhand -13.8912 31.8949
lfingers 7.12502
lthumb 12.234 61.5171
rfemur 1.54776 2.80495 29.7111
rtibia 13.8409
rfoot -24.2772 -6.36196
rtoes -13.0386
lfemur -47.6244 9.13218 -22.9946
ltibia 50.3589
lfoot -17.3533 1.30598
ltoes -11.4033
36
root 9.24273 15.7767 -42.177 8.45139 0.785032 -1.82079
lowerback 1.15138 0.00398924 5.38795
upperback 1.63493 0.02468 0.289238
thorax 1.03952 0.0706604 -2.7225
lowerneck -20.7484 -8.79472 -16.9538
upperneck 20.2798 -9.03781 8.91163
head 11.23 -4.40916 4.54409
rclavicle 4.42296e-015 4.17448e-015
rhumerus -39.0723 26.261 -94.4521
rradius 42.6796
rwrist -11.3718
rhand -23.6794 26.7295
rfingers 7.12502
rthumb 2.78701 -3.23204
lclavicle 4.42296e-015 4.17448e-015
lhumerus -33.3029 -1.16191 84.975
lradius 27.3401
lwrist -2.5696
lhand -14.2668 30.6543
lfingers 7.12502
lthumb 11.8719 60.2977
rfemur 2.18006 2.70364 29.8653
rtibia 13.0679
rfoot -24.18 -6.22422
rtoes -9.44487
lfemur -48.0043 8.86653 -23.0118
ltibia 48.9413
lfoot -16.7344 1.52784
ltoes -10.0462
37
root 9.24876 15.7893 -42.0927 9.1678 -0.313045 -2.1706
lowerback 0.669273 0.539168 5.74069
upperback 1.68369 0.704663 0.21437
thorax 1.42659 0.426176 -2.99233
lowerneck -21.7774 -9.00975 -16.7466
upperneck 20.6917 -9.26578 8.99184
head 11.6024 -4.4648 4.48423
rclavicle -1.08835e-014 1.98785e-016
rhumerus -37.586 25.1933 -93.2392
rradius 44.9398
rwrist -16.736
rhand -18.9034 23.937
rfingers 7.12502
rthumb 7.39841 -5.91359
lclavicle -1.08835e-014 1.98785e-016
lhumerus -32.8803 -1.21088 84.8356
lradius 27.1366
lwrist -2.73742
lhand -14.1373 30.5919
lfingers 7.12502
lthumb 11.9967 60.2281
rfemur 2.26482 2.88521 29.838
rtibia 11.932
rfoot -22.8888 -5.51771
rtoes -9.97695
lfemur -48.8887 9.39564 -22.8956
ltibia 47.5146
lfoot -16.3945 1.96552
ltoes -8.57342
38
root 9.24995 15.7689 -41.9892 8.57655 1.06873 -1.83641
lowerback 0.923516 -0.0690501 5.53768
upperback 2.13217 -0.105329 0.38743
thorax 1.66976 0.0330908 -2.70515
lowerneck -22.7229 -8.95234 -17.013
upperneck 21.0063 -8.92824 8.98523
head 11.8639 -4.31552 4.57571
rclavicle -1.98785e-016 1.59028e-015
rhumerus -37.7698 27.3953 -93.9332
rradius 42.4851
rwrist -11.5397
rhand -27.1123 30.6824
rfingers 7.12502
rthumb -0.528573 0.703277
lclavicle -1.98785e-016 1.59028e-015
lhumerus -32.6103 -0.43211 84.8806
lradius 26.9591
lwrist -2.761
lhand -14.3046 29.7149
lfingers 7.12502
lthumb 11.8354 59.3605
rfemur 4.33197 3.45389 30.1027
rtibia 10.3877
rfoot -22.9756 -7.63404
rtoes -11.7192
lfemur -48.3468 8.01464 -23.1325
ltibia 46.1024
lfoot -15.8598 1.98355
ltoes -9.01455
39
root 9.2679 15.7817 -41.8854 9.05253 0.327505 -2.04527
lowerback 0.488002 0.316811 5.78685
upperback 1.26218 0.409775 0.359201
thorax 1.06477 0.259904 -2.87184
lowerneck -19.7212 -8.29708 -16.8587
upperneck 20.386 -8.56208 8.90128
head 11.0034 -4.2178 4.63608
rclavicle 1.09332e-015 5.96354e-015
rhumerus -39.422 26.7381 -94.3695
rradius 43.1233
rwrist -12.4178
rhand -23.6233 26.5185
rfingers 7.12502
rthumb 2.84119 -3.44228
lclavicle 1.09332e-015 5.96354e-015
lhumerus -34.478 -0.650903 84.8688
lradius 26.9463
lwrist -2.66973
lhand -14.4136 28.5616
lfingers 7.12502
lthumb 11.7303 58.2131
rfemur 5.20204 4.058 30.0121
rtibia 8.47253
rfoot -21.9458 -7.68991
rtoes -12.3837
lfemur -48.8102 8.08813 -22.9927
ltibia 44.7488
lfoot -16.1395 2.21914
ltoes -8.86128
40
root 9.27578 15.7771 -41.7838 8.97363 0.680633 -2.13112
lowerback 0.557377 0.320248 5.9726
upperback 1.62819 0.40506 0.383231
thorax 1.40492 0.276634 -2.94993
lowerneck -21.0316 -8.48368 -16.5802
upperneck 20.7701 -8.65757 8.75862
head 11.383 -4.22773 4.50074
rclavicle 1.3418e-015 5.56597e-015
rhumerus -38.4887 26.7077 -93.8546
rradius 43.3183
rwrist -13.3003
rhand -15.5613 15.0056
rfingers 7.12502
rthumb 10.6233 -14.7059
lclavicle 1.3418e-015 5.56597e-015
lhumerus -33.9403 -0.726524 84.9288
lradius 26.9885
lwrist -2.65645
lhand -14.1391 29.1182
lfingers 7.12502
lthumb 11.995 58.7545
rfemur 7.04197 3.46888 30.2024
rtibia 6.16352
rfoot -21.3342 -7.79672
rtoes -12.3605
lfemur -48.8314 7.42755 -22.7958
ltibia 43.4532
lfoot -16.1867 2.07142
ltoes -7.49694
41
root 9.28004 15.771 -41.692 8.95348 1.05747 -2.23066
lowerback 0.814469 0.258114 6.12294
upperback 1.77926 0.334433 0.433177
thorax 1.41092 0.246427 -2.98389
lowerneck -21.8738 -8.54399 -16.3377
upperneck 21.0053 -8.64005 8.59586
head 11.6052 -4.20178 4.3907
rclavicle -2.13694e-015 -8.15017e-015
rhumerus -37.9689 26.7705 -93.6078
rradius 43.376
rwrist -13.2458
rhand -16.3921 15.8986
rfingers 7.12502
rthumb 9.82192 -13.8523
lclavicle -2.13694e-015 -8.15017e-015
lhumerus -33.8551 -0.648748 84.918
lradius 27.2885
lwrist -2.75515
lhand -13.8932 29.9711
lfingers 7.12502
lthumb 12.2321 59.5934
rfemur 9.29899 2.87027 30.367
rtibia 2.99931
rfoot -20.2467 -8.00312
rtoes -13.3604
lfemur -48.9596 6.89261 -22.692
ltibia 42.1678
lfoot -15.6756 2.02635
ltoes -8.36681
42
root 9.28346 15.7647 -41.6114 9.14128 1.19276 -2.418
lowerback 0.851468 0.239729 6.30354
upperback 1.61603 0.318293 0.52458
thorax 1.221 0.230868 -2.99157
lowerneck -21.4191 -8.34124 -16.2915
upperneck 20.8176 -8.43433 8.57096
head 11.4161 -4.11713 4.41804
rclavicle -1.49089e-015 4.57205e-015
rhumerus -37.907 26.722 -93.474
rradius 43.4863
rwrist -12.6071
rhand -16.2029 16.2911
rfingers 7.12502
rthumb 10.0045 -13.4511
lclavicle -1.49089e-015 4.57205e-015
lhumerus -34.234 -0.425284 84.8561
lradius 27.271
lwrist -2.91673
lhand -13.6953 30.1185
lfingers 7.12502
lthumb 12.4229 59.7293
rfemur 11.1518 2.56441 30.5193
rtibia 7.63333e-014
rfoot -19.0428 -7.41236
rtoes -6.7358
lfemur -49.2922 6.55998 -22.5846
ltibia 40.8697
lfoot -15.0154 2.15707
ltoes -10.9092
